<mxfile host="app.diagrams.net" modified="2023-07-03T19:54:07.573Z" agent="Mozilla/5.0 (Windows NT 10.0; Win64; x64) AppleWebKit/537.36 (KHTML, like Gecko) Chrome/114.0.0.0 Safari/537.36" etag="3OBPNZbDdgDffZtqFOsq" version="21.3.5" type="github">
  <diagram name="Page-1" id="mlCE6Rt0msktbBBOM9ru">
    <mxGraphModel dx="989" dy="546" grid="1" gridSize="10" guides="1" tooltips="1" connect="1" arrows="1" fold="1" page="1" pageScale="1" pageWidth="4000" pageHeight="4000" math="0" shadow="0">
      <root>
        <mxCell id="0" />
        <mxCell id="1" parent="0" />
        <mxCell id="CM7IQyil9puvrMDNJilN-12" style="edgeStyle=orthogonalEdgeStyle;rounded=0;orthogonalLoop=1;jettySize=auto;html=1;entryX=0.5;entryY=0;entryDx=0;entryDy=0;" edge="1" parent="1" source="CM7IQyil9puvrMDNJilN-1" target="CM7IQyil9puvrMDNJilN-11">
          <mxGeometry relative="1" as="geometry" />
        </mxCell>
        <mxCell id="CM7IQyil9puvrMDNJilN-1" value="Register" style="rounded=0;whiteSpace=wrap;html=1;fillColor=#dae8fc;strokeColor=#6c8ebf;" vertex="1" parent="1">
          <mxGeometry x="320" y="280" width="120" height="40" as="geometry" />
        </mxCell>
        <mxCell id="CM7IQyil9puvrMDNJilN-2" value="Register Data" style="swimlane;fontStyle=0;childLayout=stackLayout;horizontal=1;startSize=30;horizontalStack=0;resizeParent=1;resizeParentMax=0;resizeLast=0;collapsible=1;marginBottom=0;whiteSpace=wrap;html=1;fillColor=#ffe6cc;strokeColor=#d79b00;" vertex="1" parent="1">
          <mxGeometry x="140" y="360" width="90" height="120" as="geometry" />
        </mxCell>
        <mxCell id="CM7IQyil9puvrMDNJilN-3" value="Discord Id" style="text;strokeColor=none;fillColor=none;align=left;verticalAlign=middle;spacingLeft=4;spacingRight=4;overflow=hidden;points=[[0,0.5],[1,0.5]];portConstraint=eastwest;rotatable=0;whiteSpace=wrap;html=1;" vertex="1" parent="CM7IQyil9puvrMDNJilN-2">
          <mxGeometry y="30" width="90" height="30" as="geometry" />
        </mxCell>
        <mxCell id="CM7IQyil9puvrMDNJilN-5" value="Discord Name" style="text;strokeColor=none;fillColor=none;align=left;verticalAlign=middle;spacingLeft=4;spacingRight=4;overflow=hidden;points=[[0,0.5],[1,0.5]];portConstraint=eastwest;rotatable=0;whiteSpace=wrap;html=1;" vertex="1" parent="CM7IQyil9puvrMDNJilN-2">
          <mxGeometry y="60" width="90" height="30" as="geometry" />
        </mxCell>
        <mxCell id="CM7IQyil9puvrMDNJilN-6" value="Steam Id" style="text;strokeColor=none;fillColor=none;align=left;verticalAlign=middle;spacingLeft=4;spacingRight=4;overflow=hidden;points=[[0,0.5],[1,0.5]];portConstraint=eastwest;rotatable=0;whiteSpace=wrap;html=1;" vertex="1" parent="CM7IQyil9puvrMDNJilN-2">
          <mxGeometry y="90" width="90" height="30" as="geometry" />
        </mxCell>
        <mxCell id="CM7IQyil9puvrMDNJilN-15" style="edgeStyle=orthogonalEdgeStyle;rounded=0;orthogonalLoop=1;jettySize=auto;html=1;entryX=0;entryY=0.5;entryDx=0;entryDy=0;" edge="1" parent="1" source="CM7IQyil9puvrMDNJilN-7" target="CM7IQyil9puvrMDNJilN-1">
          <mxGeometry relative="1" as="geometry">
            <Array as="points">
              <mxPoint x="270" y="435" />
              <mxPoint x="270" y="300" />
            </Array>
          </mxGeometry>
        </mxCell>
        <mxCell id="CM7IQyil9puvrMDNJilN-7" value="Already exist" style="rounded=0;whiteSpace=wrap;html=1;fillColor=#d5e8d4;strokeColor=#82b366;" vertex="1" parent="1">
          <mxGeometry x="280" y="420" width="80" height="30" as="geometry" />
        </mxCell>
        <mxCell id="CM7IQyil9puvrMDNJilN-10" value="Adding Role" style="rounded=0;whiteSpace=wrap;html=1;fillColor=#d5e8d4;strokeColor=#82b366;" vertex="1" parent="1">
          <mxGeometry x="400" y="420" width="80" height="30" as="geometry" />
        </mxCell>
        <mxCell id="CM7IQyil9puvrMDNJilN-13" style="edgeStyle=orthogonalEdgeStyle;rounded=0;orthogonalLoop=1;jettySize=auto;html=1;entryX=0.5;entryY=0;entryDx=0;entryDy=0;" edge="1" parent="1" source="CM7IQyil9puvrMDNJilN-11" target="CM7IQyil9puvrMDNJilN-10">
          <mxGeometry relative="1" as="geometry">
            <Array as="points">
              <mxPoint x="440" y="375" />
            </Array>
          </mxGeometry>
        </mxCell>
        <mxCell id="CM7IQyil9puvrMDNJilN-14" style="edgeStyle=orthogonalEdgeStyle;rounded=0;orthogonalLoop=1;jettySize=auto;html=1;entryX=0.448;entryY=0.005;entryDx=0;entryDy=0;entryPerimeter=0;" edge="1" parent="1" source="CM7IQyil9puvrMDNJilN-11" target="CM7IQyil9puvrMDNJilN-7">
          <mxGeometry relative="1" as="geometry">
            <Array as="points">
              <mxPoint x="316" y="375" />
            </Array>
          </mxGeometry>
        </mxCell>
        <mxCell id="CM7IQyil9puvrMDNJilN-11" value="Exists check" style="rhombus;whiteSpace=wrap;html=1;fillColor=#d5e8d4;strokeColor=#82b366;" vertex="1" parent="1">
          <mxGeometry x="335" y="350" width="90" height="50" as="geometry" />
        </mxCell>
      </root>
    </mxGraphModel>
  </diagram>
</mxfile>
